<?xml version="1.0" encoding="UTF-8" standalone="no"?>
<!-- Created with Inkscape (http://www.inkscape.org/) -->

<svg
   width="256mm"
   height="256mm"
   viewBox="0 0 256 256"
   version="1.1"
   id="svg1"
   inkscape:export-filename="ben.png"
   inkscape:export-xdpi="15.481904"
   inkscape:export-ydpi="15.481904"
   inkscape:version="1.4 (e7c3feb1, 2024-10-09)"
   sodipodi:docname="br logo.svg"
   xmlns:inkscape="http://www.inkscape.org/namespaces/inkscape"
   xmlns:sodipodi="http://sodipodi.sourceforge.net/DTD/sodipodi-0.dtd"
   xmlns="http://www.w3.org/2000/svg"
   xmlns:svg="http://www.w3.org/2000/svg">
  <sodipodi:namedview
     id="namedview1"
     pagecolor="#ffffff"
     bordercolor="#000000"
     borderopacity="0.25"
     inkscape:showpageshadow="2"
     inkscape:pageopacity="0.0"
     inkscape:pagecheckerboard="0"
     inkscape:deskcolor="#d1d1d1"
     inkscape:document-units="mm"
     inkscape:zoom="0.63559753"
     inkscape:cx="276.11813"
     inkscape:cy="633.26237"
     inkscape:window-width="1824"
     inkscape:window-height="1186"
     inkscape:window-x="0"
     inkscape:window-y="30"
     inkscape:window-maximized="0"
     inkscape:current-layer="layer1" />
  <defs
     id="defs1" />
  <g
     inkscape:label="Layer 1"
     inkscape:groupmode="layer"
     id="layer1">
    <path
       id="rect1"
       style="fill:#00274f;fill-opacity:1;stroke-width:0.206375"
       d="M 0 0 L 0 48.093705 L 32.989718 48.093705 L 38.645186 48.093705 L 44.677376 47.647738 L 50.521464 47.647738 C 52.40659 47.498937 54.228863 47.424495 55.988314 47.424495 C 65.162593 47.424495 72.702944 48.763405 78.609672 51.441821 C 84.5164 53.971437 89.1665 57.170862 92.559725 61.039685 C 95.952955 64.759708 98.277742 68.851394 99.534493 73.315422 C 100.79124 77.630648 101.41965 81.573969 101.41965 85.14519 C 101.41965 90.05562 100.47704 94.593955 98.591915 98.76038 C 96.832464 102.92681 94.381784 106.57288 91.239909 109.6977 C 88.223707 112.82252 84.705049 115.35197 80.683447 117.28638 C 76.661845 119.2208 72.451838 120.48578 68.05321 121.08098 L 68.05321 121.52695 C 72.577513 121.97335 77.164667 123.16389 81.814644 125.09831 C 86.590297 126.88392 90.863247 129.48782 94.6335 132.91023 C 98.529424 136.18385 101.67094 140.27605 104.05876 145.18649 C 106.44659 150.09691 107.64046 155.75135 107.64046 162.14979 C 107.64046 168.84583 106.57248 175.02084 104.436 180.67528 C 102.29952 186.18091 99.094554 190.94257 94.821602 194.96019 C 90.548652 198.97782 85.144775 202.17724 78.609672 204.55806 C 72.074569 206.79007 64.471274 207.90617 55.799695 207.90617 C 54.040244 207.90617 52.280915 207.83173 50.521464 207.68293 C 48.887688 207.68293 47.128359 207.60849 45.243233 207.45969 C 43.358107 207.31089 41.409946 207.16201 39.399146 207.0132 L 32.989718 207.0132 L 0 207.0132 L 0 255.99988 L 255.99988 255.99988 L 255.99988 202.77264 C 255.3715 203.36784 254.61772 204.0373 253.738 204.7813 C 252.98395 205.3765 251.9784 205.97152 250.72165 206.56672 C 249.4649 207.16192 247.89389 207.60857 246.00876 207.90617 C 244.24931 208.35258 242.0504 208.5759 239.41123 208.5759 C 234.38422 208.5759 230.1737 207.83149 226.78047 206.34348 C 223.51292 204.85547 220.87393 202.69823 218.86313 199.871 C 216.85233 196.89499 215.34426 193.32335 214.33885 189.15693 C 213.45913 184.84171 212.83073 179.85724 212.4537 174.2028 L 211.13388 153.89138 C 210.63118 146.45134 209.37489 140.64802 207.36409 136.48159 C 205.35329 132.31517 202.96503 129.26462 200.20018 127.33021 C 197.561 125.3958 194.79612 124.2797 191.9056 123.9821 C 189.01507 123.5357 186.50196 123.31289 184.36549 123.31289 L 165.51393 123.31289 L 165.51393 203.88833 L 186.43875 203.88833 L 186.43875 207.0132 L 125.73806 207.0132 L 125.73806 203.88833 L 146.66288 203.88833 L 146.66288 51.218579 L 125.73806 51.218579 L 125.73806 48.093705 L 161.55551 48.093705 L 166.07979 48.093705 L 170.60406 47.647738 L 175.12833 47.647738 C 176.63643 47.498937 178.1445 47.424495 179.6526 47.424495 C 187.06743 47.424495 193.60223 47.945068 199.2576 48.986674 C 204.91299 49.879479 210.19149 52.632257 215.09281 57.245085 C 219.49144 61.262709 222.57053 65.801044 224.32998 70.860274 C 226.2151 75.919505 227.15771 80.681163 227.15771 85.14519 C 227.15771 87.377204 226.78056 90.278864 226.02651 93.850085 C 225.39814 97.272506 223.89007 100.84362 221.50224 104.56364 C 219.24009 108.13487 215.90974 111.48318 211.51112 114.60799 C 207.11249 117.58401 201.26853 119.59289 193.97937 120.6345 L 193.97937 121.08098 C 195.99018 121.37858 198.69211 121.9736 202.08534 122.8664 C 205.60424 123.6104 209.12342 124.94931 212.64232 126.88373 C 216.28689 128.81814 219.61724 131.42255 222.63344 134.69617 C 225.64964 137.82099 227.78612 141.91268 229.04287 146.97191 C 229.79692 149.94793 230.29944 153.37067 230.55079 157.2395 C 230.92781 160.95952 231.17907 164.8284 231.30474 168.84602 C 231.55609 172.86365 231.74492 176.73253 231.8706 180.45255 C 232.12195 184.17257 232.4991 187.29704 233.0018 189.82666 C 233.75585 193.69548 234.94972 197.19216 236.58349 200.31697 C 238.21727 203.44179 240.85626 205.00454 244.50084 205.00454 C 246.13462 205.00454 247.831 204.63234 249.59045 203.88833 C 251.3499 203.14433 252.92092 201.95379 254.30334 200.31697 L 255.99988 202.77264 L 255.99988 0 L 0 0 z M 52.595239 50.548853 C 50.333088 50.548853 48.007781 50.623294 45.619954 50.772095 C 43.357803 50.772095 41.410159 50.920977 39.776383 51.218579 L 39.776383 120.18801 L 57.119511 120.18801 C 60.638413 120.18801 63.842868 119.66693 66.733394 118.62532 C 69.623921 117.58371 72.074599 115.79816 74.0854 113.26854 C 76.221876 110.59012 77.855834 107.019 78.98691 102.55498 C 80.117986 98.090953 80.683447 92.436516 80.683447 85.591675 C 80.683447 77.854028 79.803783 71.679019 78.044332 67.066191 C 76.410556 62.304562 74.211136 58.73293 71.446285 56.352116 C 68.807109 53.971301 65.790968 52.409068 62.397742 51.665063 C 59.13019 50.921059 55.862791 50.548853 52.595239 50.548853 z M 178.33278 50.548853 C 176.07063 50.548853 173.74585 50.623294 171.35802 50.772095 C 169.09586 50.772095 167.1477 50.920977 165.51393 51.218579 L 165.51393 120.18801 L 182.85706 120.18801 C 186.37596 120.18801 189.58093 119.66693 192.47146 118.62532 C 195.36199 117.58371 197.81266 115.79816 199.82346 113.26854 C 201.95993 110.59012 203.59338 107.019 204.72445 102.55498 C 205.85553 98.090953 206.42151 92.436516 206.42151 85.591675 C 206.42151 77.854028 205.54133 71.679019 203.78188 67.066191 C 202.1481 62.304562 199.9492 58.73293 197.18435 56.352116 C 194.54517 53.971301 191.52903 52.409068 188.1358 51.665063 C 184.86825 50.921059 181.60034 50.548853 178.33278 50.548853 z M 0 51.218579 L 0 203.88833 L 20.924821 203.88833 L 20.924821 51.218579 L 0 51.218579 z M 39.776383 123.31289 L 39.776383 203.88833 C 41.284484 204.03713 42.917925 204.26045 44.677376 204.55806 C 46.562502 204.70685 49.202013 204.7813 52.595239 204.7813 C 58.501967 204.7813 63.528695 204.11184 67.675972 202.77264 C 71.948925 201.43342 75.405156 199.12678 78.044332 195.85316 C 80.809183 192.43074 82.819771 187.96685 84.076522 182.46121 C 85.333272 176.95558 85.961678 170.03616 85.961678 161.70331 C 85.961678 149.79924 83.825202 140.4248 79.55225 133.57996 C 75.279298 126.73512 68.932815 123.31289 60.512585 123.31289 L 39.776383 123.31289 z " />
  </g>
</svg>
